<svg width="202" height="35" viewBox="0 0 202 35" fill="none" xmlns="http://www.w3.org/2000/svg">
<path d="M63.6343 19.6024C66.3915 18.641 68.1016 16.2908 68.1016 13.2285C68.1016 9.24036 65.1699 6.4273 60.9818 6.4273H51V29.5727H53.8619V20.0297H60.4233L65.1699 29.5727H68.7298L63.6343 19.6024ZM53.8619 17.2522V9.27596H61.1214C63.4947 9.27596 65.1699 11.0208 65.1699 13.2997C65.1699 15.5786 63.4946 17.2522 60.9818 17.2522H53.8619Z" fill="white"/>
<path d="M74.789 26.724V19.3531H86.0272V16.5401H74.789V9.20475H87.8421V6.4273H71.9271V29.5727H87.9817V26.724H74.789Z" fill="white"/>
<path d="M111.497 21.7389L108.216 20.7418C107.937 24.3383 105.145 27.0089 101.515 27.0089C96.9778 27.0089 93.5574 23.1632 93.5574 17.9644C93.5574 12.7656 96.8382 8.91988 101.375 8.91988C104.726 8.91988 107.518 11.4837 107.937 14.9021L111.287 13.7626C110.45 9.20475 106.331 6 101.445 6C95.0931 6 90.4861 11.0564 90.4861 18.0356C90.4861 24.9436 95.1629 30 101.515 30C106.401 30 110.729 26.5816 111.497 21.7389Z" fill="white"/>
<path d="M125.619 30C132.181 30 136.962 24.9792 136.962 18C136.962 10.9852 132.181 6 125.619 6C119.058 6 114.276 11.0208 114.276 18C114.276 24.9792 119.058 30 125.619 30ZM125.619 27.0089C120.873 27.0089 117.348 23.1988 117.348 18C117.348 12.73 120.873 8.91988 125.619 8.91988C130.366 8.91988 133.891 12.73 133.891 18C133.891 23.1988 130.366 27.0089 125.619 27.0089Z" fill="white"/>
<path d="M153.648 19.6024C156.405 18.641 158.115 16.2908 158.115 13.2285C158.115 9.24036 155.184 6.4273 150.996 6.4273H141.014V29.5727H143.876V20.0297H150.437L155.184 29.5727H158.744L153.648 19.6024ZM143.876 17.2522V9.27596H151.135C153.509 9.27596 155.184 11.0208 155.184 13.2997C155.184 15.5786 153.509 17.2522 150.996 17.2522H143.876Z" fill="white"/>
<path d="M170.597 6.4273H161.941V29.5727H170.597C176.879 29.5727 181.486 24.7656 181.486 18C181.486 11.2344 176.879 6.4273 170.597 6.4273ZM170.317 26.6528H164.803V9.27596H170.317C175.064 9.27596 178.414 13.0148 178.414 18C178.414 22.9852 175.064 26.6528 170.317 26.6528Z" fill="white"/>
<path d="M184.41 22.2374C184.689 26.7952 188.668 30 193.903 30C198.719 30 202 27.0801 202 22.8783C202 19.8872 199.836 17.5371 196.625 16.8249L192.228 15.8279C189.994 15.3294 188.528 14.1187 188.528 12.2671C188.528 10.1306 190.413 8.70623 193.065 8.70623C195.857 8.70623 198.021 10.4154 198.161 12.9792L201.302 12.1246C200.883 8.5638 197.463 6 193.205 6C188.668 6 185.527 8.70623 185.527 12.5519C185.527 15.543 187.9 17.7864 191.39 18.6053L195.648 19.6024C197.602 20.0653 198.929 21.5252 198.929 23.092C198.929 25.5134 196.835 27.1513 193.973 27.1513C190.343 27.1513 187.691 24.8012 187.691 21.5252L184.41 22.2374Z" fill="white"/>
<path fill-rule="evenodd" clip-rule="evenodd" d="M17.5 35C27.165 35 35 27.165 35 17.5C35 7.83502 27.165 0 17.5 0C7.83502 0 0 7.83502 0 17.5C0 27.165 7.83502 35 17.5 35ZM6 10.6988L9.45012 25.1467L12.2026 24.4864L10.7263 18.3047L16.4689 16.9268L17.9449 23.1084L20.6972 22.448L17.2471 8L14.4947 8.66049L15.9114 14.5931L10.1692 15.9711L8.75248 10.0384L6 10.6988ZM21.7397 24.443C21.9929 23.5307 22.9377 22.9967 23.85 23.2499C24.7622 23.5033 25.2965 24.4482 25.0432 25.3603C24.7898 26.2726 23.8451 26.8067 22.9328 26.5535C22.0205 26.3001 21.4864 25.3552 21.7397 24.443ZM25.8993 20.7375L28.0455 13.1585L25.2927 12.4091L23.1465 19.9878L25.8993 20.7375Z" fill="white"/>
</svg>
